<svg preserveAspectRatio="none" width="100%" height="100%" overflow="visible" style="display: block;" viewBox="0 0 47 25" fill="none" xmlns="http://www.w3.org/2000/svg">
<g id="Frame 6">
<rect id="Rectangle 10" x="30" y="13" width="9" height="12" fill="var(--fill-0, white)" fill-opacity="0.5"/>
<rect id="Rectangle 11" x="39" y="13" width="8" height="12" fill="var(--fill-0, white)"/>
<path id="Rectangle 5" d="M0 25C0 18.3726 5.37258 13 12 13H24V25H0V25Z" fill="var(--fill-0, white)" fill-opacity="0.5"/>
<rect id="Rectangle 6" x="22" y="13" width="8" height="12" fill="var(--fill-0, white)"/>
<rect id="Rectangle 13" x="22" y="18" width="8" height="2" fill="var(--fill-0, #3AD372)"/>
<rect id="Rectangle 14" x="39" y="18" width="8" height="2" fill="var(--fill-0, #3AD372)"/>
<rect id="Rectangle 9" x="22" y="17" width="4" height="4" fill="var(--fill-0, black)"/>
<rect id="Rectangle 12" x="39" y="17" width="4" height="4" fill="var(--fill-0, black)"/>
<path id="Vector 4" d="M33.0107 5.43953C33.5232 5.9407 35.1551 7.14023 36.5003 7.59818C36.7908 7.6971 37.0674 7.69838 37.3374 7.62619C39.2967 6.02068 41.9333 3.22839 42.4467 2.48401C42.6637 2.15305 42.7926 1.91706 43.06 1.11434" stroke="var(--stroke-0, #3AD372)" stroke-width="2" stroke-linecap="round"/>
</g>
</svg>
