<svg preserveAspectRatio="none" width="100%" height="100%" overflow="visible" style="display: block;" viewBox="0 0 47 26" fill="none" xmlns="http://www.w3.org/2000/svg">
<g id="Frame 6">
<rect id="Rectangle 10" x="30" y="14" width="9" height="12" fill="var(--fill-0, white)" fill-opacity="0.5"/>
<rect id="Rectangle 11" x="39" y="14" width="8" height="12" fill="var(--fill-0, white)"/>
<path id="Rectangle 5" d="M0 26C0 19.3725 5.37258 14 12 14H24V26H0V26Z" fill="var(--fill-0, white)" fill-opacity="0.5"/>
<rect id="Rectangle 6" x="22" y="14" width="8" height="12" fill="var(--fill-0, white)"/>
<rect id="Rectangle 9" x="22" y="18" width="4" height="4" fill="var(--fill-0, black)"/>
<rect id="Rectangle 12" x="39" y="18" width="4" height="4" fill="var(--fill-0, black)"/>
<path id="Vector 1" d="M26.4397 2.5599C26.3632 2.56089 26.0771 2.63096 25.1351 3.24039C24.6966 3.52406 24.1156 4.03971 23.6886 4.42249C22.9998 5.04013 22.6308 5.56743 22.3699 5.95727C22.0428 6.44612 21.9271 7.71521 22.045 8.50763C22.1048 8.90989 22.7211 8.92889 23.6645 8.99621C24.0328 9.0225 24.3676 8.91878 25.4471 8.42926C26.3566 8.01683 27.9471 7.15882 29.8689 5.87388C31.7906 4.58894 33.9819 2.87428 35.1617 1.96538C36.3414 1.05647 36.4434 1.00527 36.5162 1.00035C36.5891 0.995427 36.6298 1.03833 36.6428 1.09059C36.6557 1.14285 36.6397 1.20317 36.459 1.74247C36.2783 2.28178 35.9334 3.29824 35.7324 3.99408C35.4356 5.02145 35.4366 5.5207 35.4823 5.73502C35.5193 5.90859 36.3318 5.86935 37.4329 5.81273C37.9172 5.78782 38.244 5.68206 38.8136 5.45015C39.3832 5.21823 40.1841 4.84071 41.0508 4.29011C41.9174 3.73952 42.8256 3.0273 43.3225 2.64369C43.8195 2.26009 43.8778 2.22669 43.918 2.25513C44.0276 2.33271 43.9994 2.79326 43.9887 3.36103C43.9812 3.75857 43.7231 4.60471 43.3316 5.79087C43.1514 6.28712 43.0089 6.56881 42.8466 6.84369C42.6843 7.11856 42.5065 7.37809 42.279 7.69803" stroke="var(--stroke-0, white)" stroke-width="2" stroke-linecap="round"/>
</g>
</svg>
