<svg preserveAspectRatio="none" width="100%" height="100%" overflow="visible" style="display: block;" viewBox="0 0 54.4441 29.9411" fill="none" xmlns="http://www.w3.org/2000/svg">
<g id="Frame 6">
<rect id="Rectangle 10" x="30" y="17.9411" width="9" height="12" fill="var(--fill-0, white)" fill-opacity="0.5"/>
<rect id="Rectangle 11" x="39" y="17.9411" width="8" height="12" fill="var(--fill-0, white)"/>
<path id="Rectangle 5" d="M0 29.9411C0 23.3137 5.37258 17.9411 12 17.9411H24V29.9411H0V29.9411Z" fill="var(--fill-0, white)" fill-opacity="0.5"/>
<rect id="Rectangle 6" x="22" y="17.9411" width="8" height="12" fill="var(--fill-0, white)"/>
<rect id="Rectangle 9" x="22" y="21.9411" width="4" height="4" fill="var(--fill-0, black)"/>
<rect id="Rectangle 12" x="39" y="21.9411" width="4" height="4" fill="var(--fill-0, black)"/>
<path id="Vector 2" d="M35.1824 14.6831C36.2083 14.6968 38.4622 14.6509 38.8239 14.4729C39.4648 14.1575 40.0316 13.0656 40.3511 12.3676C40.5741 11.8802 40.3999 11.2965 39.9813 10.4122C39.7105 9.84029 39.0778 9.60028 38.5053 9.41004C37.8197 9.18218 37.0451 9.36852 36.7998 9.43959C36.0858 9.64644 36.612 11.4835 36.8329 11.9401C37.0771 12.4449 37.872 12.6504 40.3446 13.0639C42.1564 13.3669 43.2826 13.127 43.7415 12.9643C44.7658 12.6011 45.8991 11.9313 46.7024 11.3767C47.3336 10.9409 47.5517 10.4443 47.6944 9.82686C47.8812 9.01827 47.7156 8.38378 47.6611 8.20669C47.4769 7.60869 46.7063 6.95344 46.2642 6.67071C45.8715 6.41958 45.1462 6.65437 44.8183 6.8319C44.738 6.87536 44.6692 6.95014 44.6123 7.02028C44.1416 7.60102 44.566 9.04559 44.9121 9.68205C45.3697 10.5235 46.1114 10.7458 47.3446 11.1269C48.1569 11.378 48.8196 11.2419 49.2909 11.0816C50.0543 10.8218 50.7235 10.3293 51.2161 9.90662C52.202 9.06055 52.5931 7.85996 52.9599 6.58185C53.1845 5.79905 53.2896 4.69366 53.3706 3.8529C53.4515 3.01215 53.4545 2.45673 53.4321 2.04174C53.4096 1.62675 53.3617 1.36902 53.2765 1.00022" stroke="var(--stroke-0, white)" stroke-width="2" stroke-miterlimit="16" stroke-linecap="round"/>
</g>
</svg>
